PathFileType	3	(X/Y/Z)	F:\ViconData\AntennenMessung\Messung1\Session1\ID24.trc
DataRate	CameraRate	NumFrames	NumMarkers	Units	OrigDataRate	OrigDataStartFrame	OrigNumFrames
120.0	120.0	5	70	mm	120.0	1	1260	
Frame#	Time	Ashort			Along			Atop			A4			Bshort			Blong			Btop			B4			Cshort			Clong			Ctop			C4			Dshort			Dlong			Dtop			D4			Eshort			Elong			Etop			E4			Fshort			Flong			Ftop			F4			Gshort			Glong			Gtop			G4			Hshort			Hlong			Htop			H4			I1			I2			I3			I4			I5			WandAshort			WandAlong			WandAtop			WandA4			WandA15			WandBshort			WandB4			WandB5			WandBtop			WandBlong			WandCshort			WandClong			WandCtop			WandC4			WandC5			Acenter			Aantenna			Bcenter			Bantenna			Ccenter			Cantenna			Dcenter			Dantenna			Ecenter			Eantenna			Fcenter			Fantenna			Gcenter			Gantenna			Hcenter			Hantenna			Icenter			Iantenna			
		X1	Y1	Z1	X2	Y2	Z2	X3	Y3	Z3	X4	Y4	Z4	X5	Y5	Z5	X6	Y6	Z6	X7	Y7	Z7	X8	Y8	Z8	X9	Y9	Z9	X10	Y10	Z10	X11	Y11	Z11	X12	Y12	Z12	X13	Y13	Z13	X14	Y14	Z14	X15	Y15	Z15	X16	Y16	Z16	X17	Y17	Z17	X18	Y18	Z18	X19	Y19	Z19	X20	Y20	Z20	X21	Y21	Z21	X22	Y22	Z22	X23	Y23	Z23	X24	Y24	Z24	X25	Y25	Z25	X26	Y26	Z26	X27	Y27	Z27	X28	Y28	Z28	X29	Y29	Z29	X30	Y30	Z30	X31	Y31	Z31	X32	Y32	Z32	X33	Y33	Z33	X34	Y34	Z34	X35	Y35	Z35	X36	Y36	Z36	X37	Y37	Z37	X38	Y38	Z38	X39	Y39	Z39	X40	Y40	Z40	X41	Y41	Z41	X42	Y42	Z42	X43	Y43	Z43	X44	Y44	Z44	X45	Y45	Z45	X46	Y46	Z46	X47	Y47	Z47	X48	Y48	Z48	X49	Y49	Z49	X50	Y50	Z50	X51	Y51	Z51	X52	Y52	Z52	X53	Y53	Z53	X54	Y54	Z54	X55	Y55	Z55	X56	Y56	Z56	X57	Y57	Z57	X58	Y58	Z58	X59	Y59	Z59	X60	Y60	Z60	X61	Y61	Z61	X62	Y62	Z62	X63	Y63	Z63	X64	Y64	Z64	X65	Y65	Z65	X66	Y66	Z66	X67	Y67	Z67	X68	Y68	Z68	X69	Y69	Z69	X70	Y70	Z70	
1	0	-1038.203	214.58514	-1644.0151	-1109.4132	204.30075	-1599.1903	-1063.7081	172.45572	-1625.2849	-1054.0857	262.21823	-1634.8065	-1352.8007	235.01607	1003.439	-1281.41	227.45107	1052.3774	-1322.5645	193.91843	1021.0175	-1284.5089	287.89691	1052.7203	814.12677	187.59059	1209.4713	892.14294	178.67581	1179.0492	844.41833	145.48451	1198.4302	860.90399	292.56516	1168.3986	1115.802	209.62265	-1401.5383	1056.3491	194.16019	-1460.3098	1094.8376	162.01155	-1423.8306	1069.7113	239.38341	-1426.2687	-1204.6672	1685.9762	-1562.9235	-1129.1143	1688.276	-1605.8824	-1173.1477	1724.314	-1581.8816	-1134.0122	1580.9583	-1603.7467	-1239.6655	1699.2583	1119.6305	-1309.4235	1698.9019	1072.037	-1270.4852	1736.4248	1097.0006	-1245.5741	1592.7986	1110.7798	988.97577	1664.212	1162.1447	955.86359	1702.2817	1180.9359	922.6369	1662.0326	1215.0688	939.73059	1659.4508	1159.8788	999.05664	1668.4058	-1579.3955	1058.9663	1670.2172	-1518.6837	1024.9684	1708.0164	-1551.1302	1059.246	1672.1722	-1585.4415	-180.58182	1638.9938	-226.02223	-266.23285	1637.7051	-229.22395	-219.23442	1675.3993	-228.86902	-217.33116	1636.5454	-259.37894	-220.52104	1640.9093	-180.26256																																														-1068.8148	210.16406	-1624.7458	-1074.0482	248.80742	-1624.1936	-1321.3107	231.67918	1025.0254	-1320.0236	270.44022	1029.1395	847.95032	183.72562	1196.2819	851.53162	222.49969	1194.1036	1088.7175	202.57855	-1428.3123	1082.9341	240.91408	-1432.5477	-1171.8433	1686.9752	-1581.5868	-1170.4819	1648.0002	-1581.2791	-1271.1012	1699.0977	1098.1827	-1271.7444	1660.1226	1099.4175	953.47241	1705.0306	1182.2927	972.79388	1731.9733	1161.7555	1026.5499	1669.2369	-1551.5339	1028.1392	1630.2715	-1551.9395	-218.73112	1638.4197	-227.44827	-218.20079	1599.452	-225.95117
2	0.0083333333	-1038.2031	214.57503	-1644.0049	-1109.3975	204.3148	-1599.2205	-1063.8542	171.65573	-1624.6844	-1054.0905	262.22162	-1634.8058	-1352.6154	235.33475	1003.4326	-1281.3781	227.39586	1052.4773	-1322.5083	193.9556	1020.9257	-1284.459	287.96817	1052.6412	814.09723	187.61478	1209.4543	892.72693	179.60818	1178.4694	844.43683	145.4975	1198.3903	860.88477	292.61716	1168.3882	1115.9658	210.20352	-1401.9611	1056.421	194.26323	-1460.3528	1094.4585	164.47362	-1425.5144	1069.7086	239.3873	-1426.2561	-1204.682	1685.9771	-1562.9146	-1129.1178	1688.266	-1605.8643	-1173.1486	1724.3079	-1581.8708	-1134.0095	1580.9572	-1603.7524	-1239.6881	1699.2781	1119.6371	-1309.4039	1698.8799	1072.0385	-1270.4454	1736.3713	1096.9841	-1245.5619	1592.7733	1110.7686	988.97638	1664.2136	1162.156	957.13458	1700.4934	1183.8547	922.62476	1661.9607	1215.1215	939.76178	1659.4314	1159.8832	999.06183	1668.3954	-1579.399	1058.9594	1670.207	-1518.6771	1024.9646	1708.016	-1551.1399	1059.2512	1672.1713	-1585.4491	-180.29396	1639.2007	-226.17525	-266.26822	1637.75	-229.22508	-219.22993	1675.4066	-228.87604	-217.3237	1636.547	-259.38098	-220.48431	1640.9263	-180.26399																																														-1069.2592	210.09933	-1624.4691	-1074.689	248.71892	-1624.2531	-1321.1556	231.82881	1025.0914	-1319.7721	270.57059	1029.3529	847.54468	184.20892	1196.2738	850.66107	223.02625	1194.1517	1088.0081	202.71916	-1429.3773	1081.5541	240.98672	-1433.2426	-1171.8499	1686.9716	-1581.5759	-1170.4943	1647.9963	-1581.2681	-1271.0699	1699.0989	1098.2109	-1271.7231	1660.1254	1099.4937	952.82208	1705.4069	1186.7933	972.44513	1733.6395	1168.3851	1026.5428	1669.2264	-1551.5396	1028.1287	1630.2609	-1551.9412	-218.65565	1638.5532	-227.53607	-218.04843	1599.5837	-226.11916
3	0.016666667	-1038.2076	214.58464	-1644.015	-1109.4242	204.32426	-1599.2152	-1063.925	172.74152	-1625.271	-1054.1016	262.20129	-1634.8048	-1352.5789	235.36111	1003.4561	-1281.3765	227.50107	1052.3314	-1322.5315	193.93112	1021.018	-1284.5056	287.92514	1052.6937	814.00592	187.81834	1209.5244	892.10797	178.6236	1179.1613	844.40961	145.56317	1198.3656	860.90137	292.5755	1168.3617	1115.8767	210.07124	-1401.7833	1056.3634	194.15715	-1460.3049	1094.736	161.8611	-1423.83	1069.7435	239.37779	-1426.2588	-1204.6747	1685.9795	-1562.9241	-1129.1055	1688.259	-1605.848	-1173.2147	1724.2224	-1581.7585	-1134.0065	1580.9589	-1603.7443	-1239.6624	1699.2434	1119.6333	-1309.4065	1698.8903	1072.0251	-1270.4523	1736.3862	1096.9911	-1245.5507	1592.7667	1110.7581	988.95105	1664.1814	1162.1465	955.84363	1702.2744	1180.934	921.82526	1662.2668	1214.963	939.77075	1659.4657	1159.8926	999.05823	1668.3987	-1579.3942	1058.7772	1669.9468	-1518.6963	1024.9709	1708.0166	-1551.1343	1059.236	1672.1615	-1585.4362	-180.58755	1639.0043	-226.02943	-266.1713	1637.6471	-229.23744	-219.25005	1675.4064	-228.87515	-217.33138	1636.5472	-259.38593	-220.50249	1640.9205	-180.25542																																														-1068.9436	210.1564	-1624.6799	-1074.1279	248.80547	-1624.0696	-1321.1128	231.88754	1025.0554	-1319.6642	270.642	1029.1775	848.09735	183.80484	1196.2709	851.83533	222.5672	1194.1477	1088.5464	202.76303	-1428.6581	1082.7506	241.06403	-1433.1793	-1171.9506	1686.9666	-1581.5115	-1170.6281	1647.9897	-1581.2533	-1271.08	1699.0841	1098.1874	-1271.7358	1660.1097	1099.4374	953.08594	1705.4473	1182.4987	972.61902	1732.4283	1162.2136	1026.4282	1669.1082	-1551.5756	1027.8877	1630.1379	-1552.0177	-218.71634	1638.3997	-227.45863	-218.15436	1599.4321	-225.96709
4	0.025	-1038.1967	214.59518	-1644.0131	-1109.4186	204.32997	-1599.218	-1063.8416	172.82573	-1625.3015	-1054.094	262.18311	-1634.804	-1352.6547	235.41866	1003.4067	-1281.4452	227.52971	1052.3887	-1322.5834	193.93617	1020.9879	-1284.4926	287.94659	1052.6902	814.09113	187.54773	1209.349	892.73975	179.63828	1178.3984	844.44556	145.4444	1198.3969	860.896	292.57877	1168.4366	1115.8701	210.0647	-1401.7863	1056.364	194.17133	-1460.2816	1094.7404	161.86137	-1423.7928	1069.6982	239.33643	-1426.2902	-1204.6852	1685.9852	-1562.9149	-1129.1245	1688.2648	-1605.859	-1173.1429	1724.3104	-1581.8761	-1134.0103	1580.9518	-1603.7476	-1239.6672	1699.2489	1119.6301	-1309.4253	1698.9097	1072.0508	-1270.4664	1736.3934	1096.9943	-1245.6415	1592.8961	1110.8092	988.97412	1664.1901	1162.1622	955.98077	1702.1669	1180.9628	922.77594	1661.9612	1215.1108	939.74829	1659.4468	1159.8788	999.06207	1668.4033	-1579.4016	1058.9619	1670.2087	-1518.6812	1024.9552	1708.0139	-1551.1404	1059.2451	1672.1724	-1585.4437	-180.31511	1639.1952	-226.17078	-266.23505	1637.697	-229.23897	-219.24564	1675.4034	-228.87633	-217.33965	1636.5496	-259.38489	-220.50121	1640.925	-180.25459																																														-1068.8625	210.17529	-1624.7256	-1074.0582	248.82307	-1624.1298	-1321.175	231.9312	1025.0602	-1319.739	270.68277	1029.2135	847.48114	184.18979	1196.2091	850.52252	223.00919	1194.0172	1088.5656	202.77197	-1428.627	1082.7845	241.07465	-1433.1528	-1171.847	1686.9758	-1581.578	-1170.4944	1648.0005	-1581.267	-1271.1008	1699.0959	1098.1903	-1271.7638	1660.1216	1099.4402	953.57111	1704.9404	1182.3358	972.87769	1731.8857	1161.7881	1026.5381	1669.2313	-1551.549	1028.1288	1630.266	-1551.9594	-218.65036	1638.5267	-227.53972	-218.02129	1599.5573	-226.12729
5	0.033333333	-1038.2184	214.55391	-1644.0005	-1109.4058	204.3141	-1599.2212	-1063.8903	172.84233	-1625.2581	-1054.1066	262.20212	-1634.8064	-1352.5645	235.35925	1003.3937	-1281.4257	227.47192	1052.3489	-1322.5574	193.89766	1020.9753	-1284.4614	287.93756	1052.6666	814.10168	187.58633	1209.4954	892.14795	178.63861	1179.1766	844.40186	145.59579	1198.3469	860.92963	292.55911	1168.4906	1115.7941	209.63353	-1401.5471	1056.3356	194.15779	-1460.296	1094.6469	162.15356	-1423.9102	1069.7253	239.38896	-1426.2677	-1204.6901	1686.0017	-1562.9021	-1129.1193	1688.2631	-1605.8428	-1173.155	1724.3037	-1581.868	-1134.0204	1580.9705	-1603.7726	-1239.6804	1699.2743	1119.6342	-1309.4127	1698.9099	1072.0431	-1270.416	1736.3301	1096.9749	-1245.5715	1592.8031	1110.7766	988.90485	1664.1733	1162.1422	957.56647	1700.229	1183.947	921.88202	1662.2822	1215.0146	939.74109	1659.4747	1159.9185	999.05359	1668.4127	-1579.4081	1058.9573	1670.22	-1518.682	1024.9614	1708.0155	-1551.1349	1059.246	1672.1736	-1585.436	-180.33438	1639.182	-226.18794	-266.19321	1637.6611	-229.23959	-219.24805	1675.3947	-228.87798	-217.32156	1636.5461	-259.38123	-220.50899	1640.9313	-180.26448																																														-1068.9033	210.14009	-1624.6986	-1074.0979	248.78824	-1624.1189	-1321.1327	231.87433	1025.0237	-1319.6791	270.62766	1029.155	847.98761	183.70143	1196.3317	851.63635	222.47618	1194.2809	1088.592	202.55344	-1428.4244	1082.8468	240.88933	-1432.7081	-1171.8611	1686.9839	-1581.556	-1170.5096	1648.0087	-1581.2302	-1271.0668	1699.1101	1098.2133	-1271.7482	1660.1377	1099.5103	952.70789	1705.8188	1187.3274	972.71063	1734.0697	1169.3612	1026.543	1669.2421	-1551.5411	1028.1324	1630.2766	-1551.9492	-218.64177	1638.5033	-227.54948	-218.00136	1599.5338	-226.14616
